<svg id="Layer_1" enable-background="new 0 0 512 512" height="512" viewBox="0 0 512 512" width="512" xmlns="http://www.w3.org/2000/svg"><g><path d="m268.633 90h-12.633v72.997h26.808z"/><path d="m354.002 192.997-174.951.017c-6.632.001-12.478-4.354-14.374-10.709l-7.854-26.307h-13.823v103.999h13.823l7.854-26.308c1.896-6.354 7.742-10.709 14.373-10.709h.001l174.95.017h.002c3.973 0 7.729-1.569 10.577-4.418 2.851-2.851 4.42-6.608 4.42-10.582 0-3.975-1.569-7.732-4.419-10.582s-6.606-4.419-10.579-4.418z"/><path d="m256 325.994h12.633l14.175-72.997h-26.808z"/><path d="m482 0h-452c-16.542 0-30 13.458-30 30v355.97c0 16.542 13.458 30 30 30h452c16.542 0 30-13.458 30-30v-355.97c0-16.542-13.458-30-30-30zm-96.206 239.792c-8.516 8.516-19.806 13.205-31.79 13.205-.003 0-.004 0-.006 0l-40.63-.004-17.643 90.86c-1.369 7.05-7.543 12.141-14.725 12.141h-40c-8.284 0-15-6.716-15-15v-88.009l-35.774-.003-7.853 26.306c-1.896 6.355-7.741 10.71-14.373 10.71h-40c-8.284 0-15-6.716-15-15v-134c0-8.284 6.716-15 15-15h40c6.632 0 12.477 4.354 14.373 10.709l7.853 26.306 35.774-.004v-88.009c0-8.284 6.716-15 15-15h40c7.182 0 13.355 5.091 14.725 12.141l17.643 90.86 40.631-.004c11.986-.001 23.278 4.688 31.795 13.205 8.516 8.516 13.206 19.808 13.206 31.795s-4.69 23.278-13.206 31.795z"/><path d="m375.91 482h-30v-36.03h-179.999v36.03h-30.001c-8.284 0-15 6.716-15 15s6.716 15 15 15h240c8.284 0 15-6.716 15-15s-6.716-15-15-15z"/></g></svg>